<?xml version="1.0" encoding="UTF-8" standalone="no"?>
<!-- Created with Inkscape (http://www.inkscape.org/) -->

<svg
   width="1815.3611"
   height="397.72931"
   viewBox="0 0 1815.3611 397.72931"
   version="1.1"
   id="svg5"
   xml:space="preserve"
   xmlns="http://www.w3.org/2000/svg"
   xmlns:svg="http://www.w3.org/2000/svg"><defs
     id="defs2" /><g
     id="layer1"
     transform="translate(-931.45221,-803.97833)"><g
       transform="matrix(0.13333333,0,0,-0.13333333,1409.48,1195.5112)"
       fill="#000000"
       stroke="none"
       id="g1063"
       style="fill:#2962ff;fill-opacity:1"><path
         d="M 998,2384 C 531,2300 203,1846 260,1364 289,1124 395,912 567,749 806,524 1087,453 1406,536 c 211,55 414,195 491,340 l 32,59 -146,85 c -134,77 -147,82 -157,66 -82,-139 -192,-219 -348,-252 -300,-64 -574,143 -644,486 -42,211 22,451 161,599 130,137 296,187 488,146 139,-29 235,-94 306,-207 l 37,-57 128,89 c 70,48 132,92 138,98 24,24 -101,176 -212,259 -178,131 -433,182 -682,137 z"
         id="path1049"
         style="fill:#2962ff;fill-opacity:1" /><path
         d="m 4583,2358 c 8,-18 173,-439 368,-935 l 354,-903 h 155 155 l 357,918 c 197,504 360,925 364,935 6,16 -7,17 -184,17 h -190 l -10,-27 c -5,-16 -113,-320 -240,-678 -127,-357 -236,-663 -242,-680 -11,-28 -28,15 -263,675 l -252,705 -193,3 -192,2 z"
         id="path1051"
         style="fill:#2962ff;fill-opacity:1" /><path
         d="m 9290,2125 v -225 h -90 -90 v -135 -135 h 90 89 l 3,-452 3,-453 28,-57 c 65,-133 207,-192 405,-168 106,13 302,76 302,97 0,16 -60,256 -65,261 -2,2 -31,-5 -64,-17 -72,-25 -160,-27 -202,-5 -56,29 -59,48 -59,439 v 355 h 145 145 v 135 135 h -145 -145 v 225 225 h -175 -175 z"
         id="path1053"
         style="fill:#2962ff;fill-opacity:1" /><path
         d="m 8310,1920 c -290,-27 -490,-231 -467,-478 16,-163 102,-236 377,-322 281,-87 352,-113 380,-141 32,-33 43,-75 30,-119 -46,-160 -345,-155 -621,10 -45,28 -86,47 -90,43 -4,-5 -34,-53 -66,-108 l -59,-101 50,-38 c 76,-56 201,-113 312,-143 85,-22 120,-26 249,-27 168,0 232,12 344,67 162,79 250,244 222,418 -30,183 -141,258 -533,364 -225,60 -278,99 -265,194 12,92 77,133 211,133 121,-1 237,-40 358,-120 23,-15 42,-21 47,-16 5,5 37,51 71,103 l 63,95 -34,29 c -90,76 -259,143 -383,153 -39,3 -82,6 -96,8 -14,1 -59,-1 -100,-4 z"
         id="path1055"
         style="fill:#2962ff;fill-opacity:1" /><path
         d="m 2620,1906 c -154,-34 -251,-87 -356,-191 -139,-138 -203,-300 -204,-511 0,-168 48,-314 145,-443 124,-164 346,-269 566,-271 420,-2 729,301 729,714 0,208 -66,373 -205,512 -139,139 -307,205 -518,203 -56,-1 -127,-7 -157,-13 z m 312,-319 c 131,-64 208,-205 208,-383 0,-179 -83,-320 -228,-387 -72,-34 -198,-31 -272,5 -136,67 -220,211 -220,378 0,173 87,325 225,392 55,27 67,29 146,26 68,-3 97,-10 141,-31 z"
         id="path1057"
         style="fill:#2962ff;fill-opacity:1" /><path
         d="m 6755,1906 c -108,-23 -179,-48 -267,-91 -140,-69 -133,-53 -76,-174 26,-58 51,-107 53,-110 3,-2 22,5 43,17 181,108 333,147 472,122 113,-20 177,-68 210,-157 18,-49 29,-193 15,-193 -3,0 -38,9 -78,21 -105,30 -315,37 -422,14 -173,-37 -319,-134 -378,-251 -31,-63 -40,-101 -39,-187 2,-205 157,-377 377,-418 178,-33 403,39 536,172 32,32 61,59 64,59 3,0 5,-17 5,-37 1,-80 59,-158 137,-184 37,-12 211,-8 233,6 6,4 10,63 10,154 v 149 l -29,5 c -53,11 -55,25 -61,367 -6,295 -7,319 -29,380 -56,159 -164,261 -336,317 -69,22 -101,26 -230,29 -96,2 -171,-2 -210,-10 z m 325,-747 c 30,-6 72,-15 93,-21 l 37,-11 v -99 -99 l -52,-56 c -80,-83 -173,-123 -292,-123 -110,0 -191,44 -227,124 -49,108 4,220 129,273 74,32 182,36 312,12 z"
         id="path1059"
         style="fill:#2962ff;fill-opacity:1" /><path
         d="m 3740,1240 v -160 h 395 395 v 160 160 h -395 -395 z"
         id="path1061"
         style="fill:#2962ff;fill-opacity:1" /></g><g
       id="g1085"
       transform="matrix(2.6200873,0,0,2.6200873,858.02151,709.3932)"
       style="image-rendering:optimizeQuality">
	<polygon
   class="st0"
   points="161.9,187.9 122.1,119.7 67.8,119.7 93.2,75.8 147,75.8 187,144.4 "
   style="fill:#2962ff;fill-opacity:1"
   id="polygon1081" />
	<polyline
   class="st1"
   points="155.6,181.7 74.4,181.7 33.8,111.4 74.4,41.1 155.6,41.1 195.2,109.7  "
   id="polyline1083" />
</g></g><style
     type="text/css"
     id="style1079">
	.st0{fill-rule:evenodd;clip-rule:evenodd;}
	.st1{fill-rule:evenodd;clip-rule:evenodd;fill:none;stroke:#2962ff;stroke-width:10;stroke-linecap:square;stroke-miterlimit:3;}
</style></svg>
